<svg width="585" height="462" viewBox="0 0 585 462" fill="none" xmlns="http://www.w3.org/2000/svg">
<path d="M295.938 44.2955L300.813 31.2015V44.2955H302.784V28.3877H299.971L295.119 41.4594L290.289 28.3877H287.386V44.2955H289.38V31.2015L294.232 44.2955H295.938Z" fill="black"/>
<path d="M342.534 44.2955L347.409 31.2015V44.2955H349.381V28.3877H346.567L341.715 41.4594L336.885 28.3877H333.982V44.2955H335.977V31.2015L340.829 44.2955H342.534Z" fill="black"/>
<path d="M365.832 44.2955L370.707 31.2015V44.2955H372.679V28.3877H369.865L365.013 41.4594L360.183 28.3877H357.28V44.2955H359.274V31.2015L364.126 44.2955H365.832Z" fill="black"/>
<path d="M412.428 44.2955L417.303 31.2015V44.2955H419.274V28.3877H416.461L411.609 41.4594L406.779 28.3877H403.876V44.2955H405.87V31.2015L410.722 44.2955H412.428Z" fill="black"/>
<path d="M435.726 44.2955L440.601 31.2015V44.2955H442.573V28.3877H439.759L434.907 41.4594L430.077 28.3877H427.174V44.2955H429.168V31.2015L434.02 44.2955H435.726Z" fill="black"/>
<path d="M482.322 44.2955L487.197 31.2015V44.2955H489.169V28.3877H486.355L481.503 41.4594L476.673 28.3877H473.77V44.2955H475.764V31.2015L480.616 44.2955H482.322Z" fill="black"/>
<path d="M552.216 44.2955L557.091 31.2015V44.2955H559.063V28.3877H556.249L551.397 41.4594L546.567 28.3877H543.664V44.2955H545.658V31.2015L550.51 44.2955H552.216Z" fill="black"/>
<path d="M132.852 71.6958L137.727 58.6019V71.6958H139.699V55.7881H136.885L132.033 68.8598L127.203 55.7881H124.3V71.6958H126.294V58.6019L131.146 71.6958H132.852Z" fill="black"/>
<path d="M249.342 71.6958L254.217 58.6019V71.6958H256.189V55.7881H253.375L248.523 68.8598L243.693 55.7881H240.79V71.6958H242.784V58.6019L247.636 71.6958H249.342Z" fill="black"/>
<path d="M319.236 71.6958L324.111 58.6019V71.6958H326.083V55.7881H323.269L318.417 68.8598L313.587 55.7881H310.684V71.6958H312.678V58.6019L317.531 71.6958H319.236Z" fill="black"/>
<path d="M412.428 71.6958L417.303 58.6019V71.6958H419.274V55.7881H416.461L411.609 68.8598L406.779 55.7881H403.876V71.6958H405.87V58.6019L410.722 71.6958H412.428Z" fill="black"/>
<path d="M435.726 71.6958L440.601 58.6019V71.6958H442.573V55.7881H439.759L434.907 68.8598L430.077 55.7881H427.174V71.6958H429.168V58.6019L434.02 71.6958H435.726Z" fill="black"/>
<path d="M575.514 71.6958L580.389 58.6019V71.6958H582.361V55.7881H579.547L574.695 68.8598L569.865 55.7881H566.962V71.6958H568.956V58.6019L573.809 71.6958H575.514Z" fill="black"/>
<path d="M16.3624 98.0953L21.2367 85.0013V98.0953H23.2085V82.1875H20.3947L15.5426 95.2592L10.7128 82.1875H7.8103V98.0953H9.80438V85.0013L14.6565 98.0953H16.3624Z" fill="black"/>
<path d="M62.9583 98.0953L67.8326 85.0013V98.0953H69.8045V82.1875H66.9907L62.1386 95.2592L57.3087 82.1875H54.4062V98.0953H56.4003V85.0013L61.2524 98.0953H62.9583Z" fill="black"/>
<path d="M86.2564 98.0953L91.1307 85.0013V98.0953H93.1026V82.1875H90.2888L85.4367 95.2592L80.6068 82.1875H77.7043V98.0953H79.6984V85.0013L84.5505 98.0953H86.2564Z" fill="black"/>
<path d="M249.342 98.0953L254.217 85.0013V98.0953H256.189V82.1875H253.375L248.523 95.2592L243.693 82.1875H240.79V98.0953H242.784V85.0013L247.636 98.0953H249.342Z" fill="black"/>
<path d="M295.938 98.0953L300.813 85.0013V98.0953H302.784V82.1875H299.971L295.119 95.2592L290.289 82.1875H287.386V98.0953H289.38V85.0013L294.232 98.0953H295.938Z" fill="black"/>
<path d="M342.534 98.0953L347.409 85.0013V98.0953H349.381V82.1875H346.567L341.715 95.2592L336.885 82.1875H333.982V98.0953H335.977V85.0013L340.829 98.0953H342.534Z" fill="black"/>
<path d="M389.13 98.0953L394.005 85.0013V98.0953H395.977V82.1875H393.163L388.311 95.2592L383.481 82.1875H380.578V98.0953H382.572V85.0013L387.425 98.0953H389.13Z" fill="black"/>
<path d="M482.322 98.0953L487.197 85.0013V98.0953H489.169V82.1875H486.355L481.503 95.2592L476.673 82.1875H473.77V98.0953H475.764V85.0013L480.616 98.0953H482.322Z" fill="black"/>
<path d="M505.62 98.0953L510.495 85.0013V98.0953H512.467V82.1875H509.653L504.801 95.2592L499.971 82.1875H497.068V98.0953H499.062V85.0013L503.915 98.0953H505.62Z" fill="black"/>
<path d="M528.918 98.0953L533.793 85.0013V98.0953H535.764V82.1875H532.951L528.099 95.2592L523.269 82.1875H520.366V98.0953H522.36V85.0013L527.212 98.0953H528.918Z" fill="black"/>
<path d="M552.216 98.0953L557.091 85.0013V98.0953H559.063V82.1875H556.249L551.397 95.2592L546.567 82.1875H543.664V98.0953H545.658V85.0013L550.51 98.0953H552.216Z" fill="black"/>
<path d="M319.236 124.496L324.111 111.402V124.496H326.083V108.588H323.269L318.417 121.66L313.587 108.588H310.684V124.496H312.678V111.402L317.531 124.496H319.236Z" fill="black"/>
<path d="M412.428 124.496L417.303 111.402V124.496H419.274V108.588H416.461L411.609 121.66L406.779 108.588H403.876V124.496H405.87V111.402L410.722 124.496H412.428Z" fill="black"/>
<path d="M435.726 124.496L440.601 111.402V124.496H442.573V108.588H439.759L434.907 121.66L430.077 108.588H427.174V124.496H429.168V111.402L434.02 124.496H435.726Z" fill="black"/>
<path d="M482.322 124.496L487.197 111.402V124.496H489.169V108.588H486.355L481.503 121.66L476.673 108.588H473.77V124.496H475.764V111.402L480.616 124.496H482.322Z" fill="black"/>
<path d="M528.918 124.496L533.793 111.402V124.496H535.764V108.588H532.951L528.099 121.66L523.269 108.588H520.366V124.496H522.36V111.402L527.212 124.496H528.918Z" fill="black"/>
<path d="M552.216 124.496L557.091 111.402V124.496H559.063V108.588H556.249L551.397 121.66L546.567 108.588H543.664V124.496H545.658V111.402L550.51 124.496H552.216Z" fill="black"/>
<path d="M575.514 124.496L580.389 111.402V124.496H582.361V108.588H579.547L574.695 121.66L569.865 108.588H566.962V124.496H568.956V111.402L573.809 124.496H575.514Z" fill="black"/>
<path d="M202.746 150.895L207.621 137.801V150.895H209.593V134.987H206.779L201.927 148.059L197.097 134.987H194.194V150.895H196.188V137.801L201.041 150.895H202.746Z" fill="black"/>
<path d="M272.64 150.895L277.515 137.801V150.895H279.487V134.987H276.673L271.821 148.059L266.991 134.987H264.088V150.895H266.082V137.801L270.935 150.895H272.64Z" fill="black"/>
<path d="M365.832 150.895L370.707 137.801V150.895H372.679V134.987H369.865L365.013 148.059L360.183 134.987H357.28V150.895H359.274V137.801L364.126 150.895H365.832Z" fill="black"/>
<path d="M389.13 150.895L394.005 137.801V150.895H395.977V134.987H393.163L388.311 148.059L383.481 134.987H380.578V150.895H382.572V137.801L387.425 150.895H389.13Z" fill="black"/>
<path d="M412.429 150.895L417.303 137.801V150.895H419.275V134.987H416.461L411.609 148.059L406.779 134.987H403.876V150.895H405.871V137.801L410.723 150.895H412.429Z" fill="black"/>
<path d="M435.726 150.895L440.601 137.801V150.895H442.573V134.987H439.759L434.907 148.059L430.077 134.987H427.174V150.895H429.168V137.801L434.02 150.895H435.726Z" fill="black"/>
<path d="M528.918 150.895L533.793 137.801V150.895H535.764V134.987H532.951L528.099 148.059L523.269 134.987H520.366V150.895H522.36V137.801L527.212 150.895H528.918Z" fill="black"/>
<path d="M552.216 150.895L557.091 137.801V150.895H559.063V134.987H556.249L551.397 148.059L546.567 134.987H543.664V150.895H545.658V137.801L550.51 150.895H552.216Z" fill="black"/>
<path d="M575.514 150.895L580.389 137.801V150.895H582.361V134.987H579.547L574.695 148.059L569.865 134.987H566.962V150.895H568.956V137.801L573.809 150.895H575.514Z" fill="black"/>
<path d="M109.555 177.295L114.429 164.201V177.295H116.401V161.388H113.587L108.735 174.459L103.905 161.388H101.002V177.295H102.997V164.201L107.849 177.295H109.555Z" fill="black"/>
<path d="M179.448 177.295L184.323 164.201V177.295H186.294V161.388H183.481L178.629 174.459L173.799 161.388H170.896V177.295H172.89V164.201L177.742 177.295H179.448Z" fill="black"/>
<path d="M202.746 177.295L207.621 164.201V177.295H209.593V161.388H206.779L201.927 174.459L197.097 161.388H194.194V177.295H196.188V164.201L201.041 177.295H202.746Z" fill="black"/>
<path d="M272.64 177.295L277.515 164.201V177.295H279.487V161.388H276.673L271.821 174.459L266.991 161.388H264.088V177.295H266.082V164.201L270.935 177.295H272.64Z" fill="black"/>
<path d="M295.938 177.295L300.813 164.201V177.295H302.784V161.388H299.971L295.119 174.459L290.289 161.388H287.386V177.295H289.38V164.201L294.232 177.295H295.938Z" fill="black"/>
<path d="M342.534 177.295L347.409 164.201V177.295H349.381V161.388H346.567L341.715 174.459L336.885 161.388H333.982V177.295H335.977V164.201L340.829 177.295H342.534Z" fill="black"/>
<path d="M389.13 177.295L394.005 164.201V177.295H395.977V161.388H393.163L388.311 174.459L383.481 161.388H380.578V177.295H382.572V164.201L387.425 177.295H389.13Z" fill="black"/>
<path d="M412.428 177.295L417.303 164.201V177.295H419.274V161.388H416.461L411.609 174.459L406.779 161.388H403.876V177.295H405.87V164.201L410.722 177.295H412.428Z" fill="black"/>
<path d="M459.024 177.295L463.899 164.201V177.295H465.871V161.388H463.057L458.205 174.459L453.375 161.388H450.472V177.295H452.466V164.201L457.319 177.295H459.024Z" fill="black"/>
<path d="M482.322 177.295L487.197 164.201V177.295H489.169V161.388H486.355L481.503 174.459L476.673 161.388H473.77V177.295H475.764V164.201L480.616 177.295H482.322Z" fill="black"/>
<path d="M505.62 177.295L510.495 164.201V177.295H512.467V161.388H509.653L504.801 174.459L499.971 161.388H497.068V177.295H499.062V164.201L503.915 177.295H505.62Z" fill="black"/>
<path d="M528.918 177.295L533.793 164.201V177.295H535.764V161.388H532.951L528.099 174.459L523.269 161.388H520.366V177.295H522.36V164.201L527.212 177.295H528.918Z" fill="black"/>
<g opacity="0.670752">
<path d="M552.216 177.295L557.091 164.201V177.295H559.063V161.388H556.249L551.397 174.459L546.567 161.388H543.664V177.295H545.658V164.201L550.51 177.295H552.216Z" fill="black"/>
</g>
<path d="M575.514 177.295L580.389 164.201V177.295H582.361V161.388H579.547L574.695 174.459L569.865 161.388H566.962V177.295H568.956V164.201L573.809 177.295H575.514Z" fill="black"/>
<path d="M342.534 203.696L347.409 190.602V203.696H349.381V187.788H346.567L341.715 200.86L336.885 187.788H333.982V203.696H335.977V190.602L340.829 203.696H342.534Z" fill="black"/>
<path d="M389.13 203.696L394.005 190.602V203.696H395.977V187.788H393.163L388.311 200.86L383.481 187.788H380.578V203.696H382.572V190.602L387.425 203.696H389.13Z" fill="black"/>
<path d="M435.726 203.696L440.601 190.602V203.696H442.573V187.788H439.759L434.907 200.86L430.077 187.788H427.174V203.696H429.168V190.602L434.02 203.696H435.726Z" fill="black"/>
<path d="M505.62 203.696L510.495 190.602V203.696H512.467V187.788H509.653L504.801 200.86L499.971 187.788H497.068V203.696H499.062V190.602L503.915 203.696H505.62Z" fill="black"/>
<path d="M552.216 203.696L557.091 190.602V203.696H559.063V187.788H556.249L551.397 200.86L546.567 187.788H543.664V203.696H545.658V190.602L550.51 203.696H552.216Z" fill="black"/>
<path d="M342.534 230.095L347.409 217.001V230.095H349.381V214.188H346.567L341.715 227.259L336.885 214.188H333.982V230.095H335.977V217.001L340.829 230.095H342.534Z" fill="black"/>
<path d="M365.832 230.095L370.707 217.001V230.095H372.679V214.188H369.865L365.013 227.259L360.183 214.188H357.28V230.095H359.274V217.001L364.126 230.095H365.832Z" fill="black"/>
<path d="M435.726 230.095L440.601 217.001V230.095H442.573V214.188H439.759L434.907 227.259L430.077 214.188H427.174V230.095H429.168V217.001L434.02 230.095H435.726Z" fill="black"/>
<path d="M505.62 230.095L510.495 217.001V230.095H512.467V214.188H509.653L504.801 227.259L499.971 214.188H497.068V230.095H499.062V217.001L503.915 230.095H505.62Z" fill="black"/>
<path d="M226.044 256.496L230.919 243.402V256.496H232.89V240.588H230.077L225.225 253.66L220.395 240.588H217.492V256.496H219.486V243.402L224.338 256.496H226.044Z" fill="black"/>
<path d="M272.64 256.496L277.515 243.402V256.496H279.487V240.588H276.673L271.821 253.66L266.991 240.588H264.088V256.496H266.082V243.402L270.935 256.496H272.64Z" fill="black"/>
<path d="M295.938 256.496L300.813 243.402V256.496H302.784V240.588H299.971L295.119 253.66L290.289 240.588H287.386V256.496H289.38V243.402L294.232 256.496H295.938Z" fill="black"/>
<path d="M412.428 256.496L417.303 243.402V256.496H419.274V240.588H416.461L411.609 253.66L406.779 240.588H403.876V256.496H405.87V243.402L410.722 256.496H412.428Z" fill="black"/>
<path d="M459.024 256.496L463.899 243.402V256.496H465.871V240.588H463.057L458.205 253.66L453.375 240.588H450.472V256.496H452.466V243.402L457.319 256.496H459.024Z" fill="black"/>
<path d="M482.322 256.496L487.197 243.402V256.496H489.169V240.588H486.355L481.503 253.66L476.673 240.588H473.77V256.496H475.764V243.402L480.616 256.496H482.322Z" fill="black"/>
<path d="M552.216 256.496L557.091 243.402V256.496H559.063V240.588H556.249L551.397 253.66L546.567 240.588H543.664V256.496H545.658V243.402L550.51 256.496H552.216Z" fill="black"/>
<path d="M575.514 256.496L580.389 243.402V256.496H582.361V240.588H579.547L574.695 253.66L569.865 240.588H566.962V256.496H568.956V243.402L573.809 256.496H575.514Z" fill="black"/>
<path d="M156.15 282.895L161.025 269.801V282.895H162.997V266.987H160.183L155.331 280.059L150.501 266.987H147.598V282.895H149.592V269.801L154.445 282.895H156.15Z" fill="black"/>
<path d="M202.746 282.895L207.621 269.801V282.895H209.593V266.987H206.779L201.927 280.059L197.097 266.987H194.194V282.895H196.188V269.801L201.041 282.895H202.746Z" fill="black"/>
<path d="M226.044 282.895L230.919 269.801V282.895H232.891V266.987H230.077L225.225 280.059L220.395 266.987H217.492V282.895H219.487V269.801L224.339 282.895H226.044Z" fill="black"/>
<path d="M249.342 282.895L254.217 269.801V282.895H256.189V266.987H253.375L248.523 280.059L243.693 266.987H240.79V282.895H242.784V269.801L247.636 282.895H249.342Z" fill="black"/>
<path d="M389.13 282.895L394.005 269.801V282.895H395.977V266.987H393.163L388.311 280.059L383.481 266.987H380.578V282.895H382.572V269.801L387.425 282.895H389.13Z" fill="black"/>
<path d="M412.429 282.895L417.303 269.801V282.895H419.275V266.987H416.461L411.609 280.059L406.779 266.987H403.876V282.895H405.871V269.801L410.723 282.895H412.429Z" fill="black"/>
<path d="M459.024 282.895L463.899 269.801V282.895H465.87V266.987H463.057L458.205 280.059L453.375 266.987H450.472V282.895H452.466V269.801L457.318 282.895H459.024Z" fill="black"/>
<path d="M482.322 282.895L487.197 269.801V282.895H489.169V266.987H486.355L481.503 280.059L476.673 266.987H473.77V282.895H475.764V269.801L480.616 282.895H482.322Z" fill="black"/>
<path d="M319.236 309.295L324.111 296.201V309.295H326.083V293.388H323.269L318.417 306.459L313.587 293.388H310.684V309.295H312.678V296.201L317.531 309.295H319.236Z" fill="black"/>
<path d="M342.534 309.295L347.409 296.201V309.295H349.381V293.388H346.567L341.715 306.459L336.885 293.388H333.982V309.295H335.977V296.201L340.829 309.295H342.534Z" fill="black"/>
<path d="M528.918 309.295L533.793 296.201V309.295H535.764V293.388H532.951L528.099 306.459L523.269 293.388H520.366V309.295H522.36V296.201L527.212 309.295H528.918Z" fill="black"/>
<path d="M552.216 309.295L557.091 296.201V309.295H559.063V293.388H556.249L551.397 306.459L546.567 293.388H543.664V309.295H545.658V296.201L550.51 309.295H552.216Z" fill="black"/>
<path d="M365.832 335.696L370.707 322.602V335.696H372.679V319.788H369.865L365.013 332.86L360.183 319.788H357.28V335.696H359.274V322.602L364.126 335.696H365.832Z" fill="black"/>
<path d="M389.13 335.696L394.005 322.602V335.696H395.977V319.788H393.163L388.311 332.86L383.481 319.788H380.578V335.696H382.572V322.602L387.425 335.696H389.13Z" fill="black"/>
<path d="M412.428 335.696L417.303 322.602V335.696H419.274V319.788H416.461L411.609 332.86L406.779 319.788H403.876V335.696H405.87V322.602L410.722 335.696H412.428Z" fill="black"/>
<path d="M459.024 335.696L463.899 322.602V335.696H465.871V319.788H463.057L458.205 332.86L453.375 319.788H450.472V335.696H452.466V322.602L457.319 335.696H459.024Z" fill="black"/>
<path d="M482.322 335.696L487.197 322.602V335.696H489.169V319.788H486.355L481.503 332.86L476.673 319.788H473.77V335.696H475.764V322.602L480.616 335.696H482.322Z" fill="black"/>
<path d="M505.62 335.696L510.495 322.602V335.696H512.467V319.788H509.653L504.801 332.86L499.971 319.788H497.068V335.696H499.062V322.602L503.915 335.696H505.62Z" fill="black"/>
<path d="M552.216 335.696L557.091 322.602V335.696H559.063V319.788H556.249L551.397 332.86L546.567 319.788H543.664V335.696H545.658V322.602L550.51 335.696H552.216Z" fill="black"/>
<path d="M109.555 362.095L114.429 349.001V362.095H116.401V346.188H113.587L108.735 359.259L103.905 346.188H101.002V362.095H102.997V349.001L107.849 362.095H109.555Z" fill="black"/>
<path d="M156.15 362.095L161.025 349.001V362.095H162.997V346.188H160.183L155.331 359.259L150.501 346.188H147.598V362.095H149.592V349.001L154.445 362.095H156.15Z" fill="black"/>
<path d="M319.236 362.095L324.111 349.001V362.095H326.083V346.188H323.269L318.417 359.259L313.587 346.188H310.684V362.095H312.678V349.001L317.531 362.095H319.236Z" fill="black"/>
<path d="M342.534 362.095L347.409 349.001V362.095H349.381V346.188H346.567L341.715 359.259L336.885 346.188H333.982V362.095H335.977V349.001L340.829 362.095H342.534Z" fill="black"/>
<path d="M365.832 362.095L370.707 349.001V362.095H372.679V346.188H369.865L365.013 359.259L360.183 346.188H357.28V362.095H359.274V349.001L364.126 362.095H365.832Z" fill="black"/>
<path d="M435.726 362.095L440.601 349.001V362.095H442.573V346.188H439.759L434.907 359.259L430.077 346.188H427.174V362.095H429.168V349.001L434.02 362.095H435.726Z" fill="black"/>
<path d="M482.322 362.095L487.197 349.001V362.095H489.169V346.188H486.355L481.503 359.259L476.673 346.188H473.77V362.095H475.764V349.001L480.616 362.095H482.322Z" fill="black"/>
<path d="M505.62 362.095L510.495 349.001V362.095H512.467V346.188H509.653L504.801 359.259L499.971 346.188H497.068V362.095H499.062V349.001L503.915 362.095H505.62Z" fill="black"/>
<path d="M575.514 362.095L580.389 349.001V362.095H582.361V346.188H579.547L574.695 359.259L569.865 346.188H566.962V362.095H568.956V349.001L573.809 362.095H575.514Z" fill="black"/>
<path d="M389.13 388.496L394.005 375.402V388.496H395.977V372.588H393.163L388.311 385.66L383.481 372.588H380.578V388.496H382.572V375.402L387.425 388.496H389.13Z" fill="black"/>
<path d="M412.428 388.496L417.303 375.402V388.496H419.274V372.588H416.461L411.609 385.66L406.779 372.588H403.876V388.496H405.87V375.402L410.722 388.496H412.428Z" fill="black"/>
<path d="M435.726 388.496L440.601 375.402V388.496H442.573V372.588H439.759L434.907 385.66L430.077 372.588H427.174V388.496H429.168V375.402L434.02 388.496H435.726Z" fill="black"/>
<path d="M482.322 388.496L487.197 375.402V388.496H489.169V372.588H486.355L481.503 385.66L476.673 372.588H473.77V388.496H475.764V375.402L480.616 388.496H482.322Z" fill="black"/>
<path d="M505.62 388.496L510.495 375.402V388.496H512.467V372.588H509.653L504.801 385.66L499.971 372.588H497.068V388.496H499.062V375.402L503.915 388.496H505.62Z" fill="black"/>
<path d="M249.342 414.895L254.217 401.801V414.895H256.189V398.987H253.375L248.523 412.059L243.693 398.987H240.79V414.895H242.784V401.801L247.636 414.895H249.342Z" fill="black"/>
<path d="M272.64 414.895L277.515 401.801V414.895H279.487V398.987H276.673L271.821 412.059L266.991 398.987H264.088V414.895H266.082V401.801L270.935 414.895H272.64Z" fill="black"/>
<path d="M295.938 414.895L300.813 401.801V414.895H302.784V398.987H299.971L295.119 412.059L290.289 398.987H287.386V414.895H289.38V401.801L294.232 414.895H295.938Z" fill="black"/>
<path d="M319.236 414.895L324.111 401.801V414.895H326.083V398.987H323.269L318.417 412.059L313.587 398.987H310.684V414.895H312.678V401.801L317.531 414.895H319.236Z" fill="black"/>
<path d="M365.832 414.895L370.707 401.801V414.895H372.679V398.987H369.865L365.013 412.059L360.183 398.987H357.28V414.895H359.274V401.801L364.126 414.895H365.832Z" fill="black"/>
<path d="M435.726 414.895L440.601 401.801V414.895H442.573V398.987H439.759L434.907 412.059L430.077 398.987H427.174V414.895H429.168V401.801L434.02 414.895H435.726Z" fill="black"/>
<path d="M459.024 414.895L463.899 401.801V414.895H465.871V398.987H463.057L458.205 412.059L453.375 398.987H450.472V414.895H452.466V401.801L457.319 414.895H459.024Z" fill="black"/>
<path d="M505.62 414.895L510.495 401.801V414.895H512.467V398.987H509.653L504.801 412.059L499.971 398.987H497.068V414.895H499.062V401.801L503.915 414.895H505.62Z" fill="black"/>
<path d="M528.918 414.895L533.793 401.801V414.895H535.764V398.987H532.951L528.099 412.059L523.269 398.987H520.366V414.895H522.36V401.801L527.212 414.895H528.918Z" fill="black"/>
<path d="M319.236 441.295L324.111 428.201V441.295H326.083V425.388H323.269L318.417 438.459L313.587 425.388H310.684V441.295H312.678V428.201L317.531 441.295H319.236Z" fill="black"/>
<path d="M459.024 441.295L463.899 428.201V441.295H465.871V425.388H463.057L458.205 438.459L453.375 425.388H450.472V441.295H452.466V428.201L457.319 441.295H459.024Z" fill="black"/>
<path d="M482.322 441.295L487.197 428.201V441.295H489.169V425.388H486.355L481.503 438.459L476.673 425.388H473.77V441.295H475.764V428.201L480.616 441.295H482.322Z" fill="black"/>
<path d="M552.216 441.295L557.091 428.201V441.295H559.063V425.388H556.249L551.397 438.459L546.567 425.388H543.664V441.295H545.658V428.201L550.51 441.295H552.216Z" fill="black"/>
<path d="M575.514 441.295L580.389 428.201V441.295H582.361V425.388H579.547L574.695 438.459L569.865 425.388H566.962V441.295H568.956V428.201L573.809 441.295H575.514Z" fill="black"/>
</svg>
